<svg xmlns="http://www.w3.org/2000/svg" viewBox="0 0 512 512" width="512" height="512" style="height: 512px; width: 512px;"><defs><linearGradient id="lorc-dodging-gradient-3"><stop offset="0%" stop-color="#ffffff" stop-opacity="0"></stop><stop offset="100%" stop-color="#ffffff" stop-opacity="1"></stop></linearGradient><linearGradient id="lorc-dodging-gradient-4"><stop offset="0%" stop-color="#ffffff" stop-opacity="0"></stop><stop offset="100%" stop-color="#fff" stop-opacity="1"></stop></linearGradient><linearGradient id="lorc-dodging-gradient-5"><stop offset="0%" stop-color="#ffffff" stop-opacity="0"></stop><stop offset="100%" stop-color="#fff" stop-opacity="1"></stop></linearGradient><linearGradient id="lorc-dodging-gradient-6"><stop offset="0%" stop-color="#ffffff" stop-opacity="0"></stop><stop offset="100%" stop-color="#fff" stop-opacity="1"></stop></linearGradient><linearGradient id="lorc-dodging-gradient-7"><stop offset="0%" stop-color="#ffffff" stop-opacity="0"></stop><stop offset="100%" stop-color="#fff" stop-opacity="1"></stop></linearGradient><linearGradient id="lorc-dodging-gradient-8"><stop offset="0%" stop-color="#ffffff" stop-opacity="0"></stop><stop offset="100%" stop-color="#fff" stop-opacity="1"></stop></linearGradient><linearGradient id="lorc-dodging-gradient-9"><stop offset="0%" stop-color="#ffffff" stop-opacity="0"></stop><stop offset="100%" stop-color="#fff" stop-opacity="1"></stop></linearGradient><linearGradient id="lorc-dodging-gradient-10"><stop offset="0%" stop-color="#ffffff" stop-opacity="0"></stop><stop offset="100%" stop-color="#fff" stop-opacity="1"></stop></linearGradient></defs><g class="" transform="translate(0,0)" style=""><g transform="translate(512, 0) scale(-1, 1) rotate(0, 256, 256) skewX(0) skewY(0)"><path d="M396.082 17.326C395.916 17.301 394.16 17.434 391.105 17.434C369.13 17.434 348.947 36.338 341.668 64.029L417.381 76.639L338.855 89.724C339.419 105.972 344.405 120.714 351.917 132.091L406.307 141.694L365.03 148.984L365.514 149.591L349.604 152.061C334.342 154.427 323.738 161.691 315.144 173.226C312.61 176.626 310.296 180.424 308.182 184.554L398.98 197.754L298.004 212.438C297.428 214.688 296.886 216.98 296.377 219.312C294.715 226.925 293.424 234.934 292.395 243.166L407.67 257.273L289.86 271.691C289.335 280.774 289.02 289.927 288.838 299.001L402.908 315.408L289.604 331.708L330.43 331.708L332.574 364.24L414.6 375.62L334.06 386.793L336.572 424.933L412.154 435.83L337.996 446.52L340.934 491.11L437.24 491.11L449.115 331.707L493.098 331.707C492.87 295.674 491.184 254.387 482.961 220.513C478.499 202.129 472.121 186.093 463.647 174.45C455.175 162.808 445.064 155.492 431.399 152.92L415.809 149.987L425.933 137.774C436.368 125.187 443.423 107.086 443.423 86.647C443.423 49.591 421.339 20.607 396.296 17.352L396.19 17.339L396.082 17.323Z" class="" fill="#fff" fill-opacity="1"></path><path d="M342.547 22.381L16.785 45.968L321.715 68.05C324.788 50.378 332.145 34.48 342.547 22.38Z" class="" fill="url(#lorc-dodging-gradient-3)"></path><path d="M320.145 84.495L16.783 106.46L329.063 129.072C323.377 116.454 320.103 102.025 320.103 86.65C320.103 85.928 320.13 85.213 320.145 84.494Z" class="" fill="url(#lorc-dodging-gradient-4)"></path><path d="M317.533 145.183L16.783 166.96L286.743 186.506C290.326 177.6 294.718 169.362 300.158 162.061C305.026 155.529 310.834 149.807 317.533 145.183Z" class="" fill="url(#lorc-dodging-gradient-5)"></path><path d="M279.743 208.411L16.783 227.451L273.19 246.02C274.37 235.523 275.96 225.212 278.117 215.33C278.627 213 279.167 210.695 279.742 208.412Z" class="" fill="url(#lorc-dodging-gradient-6)"></path><path d="M271.416 266.214L16.783 284.65L270.008 302.986C270.188 290.929 270.593 278.548 271.416 266.213Z" class="" fill="url(#lorc-dodging-gradient-7)"></path><path d="M269.854 326.819L16.784 345.144L314.004 366.664L312.932 350.397L269.86 350.397L269.86 341.054C269.86 336.434 269.85 331.674 269.854 326.819Z" class="" fill="url(#lorc-dodging-gradient-8)"></path><path d="M315.148 384.039L16.783 405.64L318.01 427.45L315.148 384.037Z" class="" fill="url(#lorc-dodging-gradient-9)"></path><path d="M319.118 444.241L16.782 466.13L322.015 488.232L319.115 444.24Z" class="selected" fill="url(#lorc-dodging-gradient-10)"></path></g></g></svg>
